<svg width="18" height="16" viewBox="0 0 18 16" fill="none" xmlns="http://www.w3.org/2000/svg">
<path d="M15.8691 1.96421C17.7541 3.85421 17.8191 6.86421 16.0658 8.82755L8.99913 15.9042L1.93413 8.82755C0.180798 6.86421 0.246631 3.84921 2.1308 1.96421C4.0183 0.0775443 7.03746 0.0142108 9.0008 1.77421C10.9583 0.0167108 13.9833 0.0750443 15.8691 1.96421ZM3.30996 3.14338C2.0683 4.38505 2.0058 6.37255 3.14996 7.68588L8.99996 13.545L14.85 7.68671C15.995 6.37255 15.9325 4.38755 14.6891 3.14171C13.45 1.90004 11.455 1.84004 10.145 2.98671L6.6433 6.48921L5.46413 5.31088L7.8183 2.95504L7.74996 2.89754C6.43746 1.84338 4.51913 1.93338 3.30996 3.14338Z" fill="#121212"/>
</svg>
